PathFileType	4	(X/Y/Z)	/Users/itak/Documents/Research/Walk-IL/dataset/trc/00309_00010.trc
DataRate	CameraRate	NumFrames	NumMarkers	Units	OrigDataRate	OrigDataStartFrame	OrigNumFrames
100.000000	100.000000	4	53	mm	100.000000	203	542
Frame#	Time	RPSI			LPSI			L3			STRN			T10			C7			CLAV			RBAK			LBAK			LSHO			LUPA			LAEL			LAOL			LWTS			LWPS			LFRA			LIFD			LHPS			LHTS			RSHO			RUPA			RAEL			RAOL			RWTS			RWPS			RFRA			RIFD			RHTS			RHPS			RBHD			LFHD			RFHD			LBHD			LHIP			RHIP			RASI			LASI			LKNE			LTHI			LANK			LTIP			LTOE			LMT1			LMT5			LHEE			RKNE			RTHI			RANK			RTIP			RTOE			RMT1			RMT5			RHEE			
		X1	Y1	Z1	X2	Y2	Z2	X3	Y3	Z3	X4	Y4	Z4	X5	Y5	Z5	X6	Y6	Z6	X7	Y7	Z7	X8	Y8	Z8	X9	Y9	Z9	X10	Y10	Z10	X11	Y11	Z11	X12	Y12	Z12	X13	Y13	Z13	X14	Y14	Z14	X15	Y15	Z15	X16	Y16	Z16	X17	Y17	Z17	X18	Y18	Z18	X19	Y19	Z19	X20	Y20	Z20	X21	Y21	Z21	X22	Y22	Z22	X23	Y23	Z23	X24	Y24	Z24	X25	Y25	Z25	X26	Y26	Z26	X27	Y27	Z27	X28	Y28	Z28	X29	Y29	Z29	X30	Y30	Z30	X31	Y31	Z31	X32	Y32	Z32	X33	Y33	Z33	X34	Y34	Z34	X35	Y35	Z35	X36	Y36	Z36	X37	Y37	Z37	X38	Y38	Z38	X39	Y39	Z39	X40	Y40	Z40	X41	Y41	Z41	X42	Y42	Z42	X43	Y43	Z43	X44	Y44	Z44	X45	Y45	Z45	X46	Y46	Z46	X47	Y47	Z47	X48	Y48	Z48	X49	Y49	Z49	X50	Y50	Z50	X51	Y51	Z51	X52	Y52	Z52	X53	Y53	Z53	

204	2.03	-890.8366088867188	979.5736694335938	-564.7218627929688	-855.2383422851562	976.3922119140625	-736.33642578125	-849.8515625	1045.417358398438	-662.8228759765625	-593.3865966796875	1200.523315429688	-597.8193969726562	-847.9434814453125	1157.625244140625	-675.322021484375	-782.9597778320312	1399.43359375	-677.7113647460938	-643.6070556640625	1305.745483398438	-619.4342041015625	-864.9307250976562	1265.281005859375	-627.01416015625	-765.8274536132812	1361.013427734375	-781.1759643554688	-663.6231079101562	1360.694091796875	-801.2249145507812	-673.5813598632812	1242.662841796875	-877.380615234375	-664.482421875	1039.819091796875	-890.0294799804688	-740.5612182617188	1025.241455078125	-848.5091552734375	-569.3162841796875	840.0120849609375	-812.2738037109375	-589.1331787109375	816.7084350585938	-879.3573608398438	-638.3908081054688	939.6273193359375	-888.9617919921875	-519.68994140625	665.6453857421875	-795.5528564453125	-561.7744140625	732.6936645507812	-867.1434326171875	-516.7523193359375	754.2650756835938	-821.6281127929688	-778.609619140625	1374.558959960938	-507.0820617675781	-817.6389770507812	1320.828735351562	-450.4888305664062	-905.9002075195312	1070.186279296875	-422.8531799316406	-881.7445068359375	1056.628662109375	-513.2805786132812	-863.9548950195312	826.18310546875	-402.3365783691406	-940.1375122070312	845.6082763671875	-370.82373046875	-912.3213500976562	1004.333862304688	-397.6659545898438	-922.2347412109375	647.6251831054688	-406.4774780273438	-890.1709594726562	710.9098510742188	-374.4345703125	-956.6659545898438	732.6918334960938	-361.8465576171875	-777.29443359375	1560.610595703125	-605.7255249023438	-566.0049438476562	1578.370483398438	-616.7548828125	-614.6069946289062	1573.438598632812	-537.7673950195312	-700.3790283203125	1558.659423828125	-730.0459594726562	-778.6172485351562	918.9349365234375	-820.509521484375	-807.8258666992188	927.94384765625	-447.2802429199219	-682.1185913085938	920.5946044921875	-501.1852416992188	-648.1817626953125	906.8609619140625	-750.1318359375	-863.6822509765625	468.7109985351562	-803.1310424804688	-817.7964477539062	603.6468505859375	-814.8310546875	-1148.617797851562	110.8209075927734	-825.8300170898438	-1010.609680175781	288.8005065917969	-826.6094360351562	-976.6151123046875	37.2727165222168	-742.7388305664062	-1047.009887695312	45.43910598754883	-705.5362548828125	-1042.463623046875	49.01853179931641	-821.0897216796875	-1198.379516601562	135.0458831787109	-774.2222900390625	-624.3560180664062	484.7939453125	-481.8173217773438	-701.5155639648438	734.691162109375	-437.706787109375	-624.0243530273438	40.6241455078125	-538.8270874023438	-590.011962890625	363.3352966308594	-498.2086791992188	-422.1392822265625	50.01082992553711	-547.33935546875	-468.5810241699219	44.66571044921875	-598.822998046875	-526.3120727539062	34.09712982177734	-496.7518005371094	-661.882080078125	35.76261138916016	-598.5192260742188	
205	2.04	-882.10888671875	980.9208984375	-561.0792846679688	-846.2355346679688	977.58837890625	-732.6054077148438	-841.4222412109375	1046.858276367188	-659.4680786132812	-585.9305419921875	1203.159790039062	-593.3323364257812	-839.8980102539062	1158.810302734375	-672.0670166015625	-776.3151245117188	1400.891845703125	-674.1914672851562	-636.6929321289062	1308.135620117188	-615.2453002929688	-857.7050170898438	1266.264526367188	-623.7980346679688	-758.3899536132812	1362.7021484375	-777.5516967773438	-656.065185546875	1363.126098632812	-797.0299682617188	-665.191162109375	1245.37890625	-873.583251953125	-655.9793701171875	1042.605346679688	-886.7739868164062	-732.0511474609375	1027.840942382812	-845.3589477539062	-560.8218994140625	842.3131103515625	-809.6239013671875	-580.5407104492188	819.422119140625	-876.7601318359375	-629.806396484375	942.4107666015625	-886.0830688476562	-512.1464233398438	667.5066528320312	-793.5697631835938	-553.6404418945312	735.1720581054688	-864.926513671875	-508.8048095703125	756.1841430664062	-819.11474609375	-772.5230712890625	1376.111938476562	-503.5977783203125	-811.4116821289062	1322.214721679688	-447.098876953125	-897.9613647460938	1070.964233398438	-419.6000671386719	-873.56396484375	1057.56689453125	-509.9866333007812	-853.6216430664062	827.305908203125	-398.8353576660156	-930.0067749023438	845.9915161132812	-367.4026489257812	-903.8531494140625	1005.003356933594	-394.4053039550781	-910.1788330078125	648.2139892578125	-403.1030578613281	-878.6959838867188	711.7343139648438	-370.9907531738281	-945.4740600585938	732.9347534179688	-358.480224609375	-771.6528930664062	1562.1435546875	-602.1161499023438	-560.408203125	1580.786499023438	-612.5850219726562	-609.1924438476562	1575.647216796875	-533.7395629882812	-694.417724609375	1560.57666015625	-726.2394409179688	-769.3626708984375	920.381591796875	-816.563720703125	-799.3006591796875	929.54541015625	-443.3406066894531	-673.4655151367188	922.6145629882812	-497.17724609375	-639.0006103515625	908.789306640625	-745.9168701171875	-850.8544921875	469.0055236816406	-801.18994140625	-806.1466064453125	604.344970703125	-812.0336303710938	-1143.392456054688	116.6017608642578	-826.25927734375	-1001.423645019531	291.7452697753906	-826.0529174804688	-975.89599609375	37.07343292236328	-742.8336181640625	-1045.557495117188	46.7274169921875	-705.3888549804688	-1040.079223632812	49.89802932739258	-821.5901489257812	-1191.719116210938	142.6824188232422	-774.404052734375	-618.785400390625	484.5898742675781	-480.0432434082031	-693.2574462890625	735.2044677734375	-434.4706420898438	-623.8505859375	40.92030334472656	-538.8594970703125	-585.5819091796875	362.8420715332031	-497.1233215332031	-421.4492797851562	48.53824234008789	-547.8244018554688	-468.2152709960938	43.88521575927734	-599.351318359375	-525.9955444335938	34.16925811767578	-496.9889831542969	-661.7463989257812	36.01423263549805	-598.43505859375	
206	2.05	-873.4168090820312	982.3118896484375	-557.3131103515625	-837.4453735351562	978.7960205078125	-728.77001953125	-833.064697265625	1048.39208984375	-655.9553833007812	-578.5072631835938	1205.837768554688	-588.9191284179688	-831.933837890625	1160.03173828125	-668.6476440429688	-769.7306518554688	1402.35888671875	-670.6131591796875	-629.8201904296875	1310.582885742188	-611.07470703125	-850.5276489257812	1267.261108398438	-620.468017578125	-751.0940551757812	1364.407592773438	-773.8735961914062	-648.6729736328125	1365.591430664062	-792.8338623046875	-656.9039306640625	1248.138916015625	-869.7816772460938	-647.414794921875	1045.454467773438	-883.578125	-723.5501098632812	1030.4736328125	-842.4237670898438	-552.458251953125	844.596435546875	-806.9946899414062	-571.9365234375	822.1560668945312	-874.2315673828125	-621.166015625	945.2431030273438	-883.2722778320312	-504.8426208496094	669.3717041015625	-791.5706176757812	-545.5678100585938	737.639892578125	-862.7578125	-501.2189636230469	757.9348754882812	-816.5206298828125	-766.4190063476562	1377.696044921875	-500.0631713867188	-805.1364135742188	1323.659057617188	-443.63427734375	-889.940673828125	1071.78271484375	-416.205810546875	-865.331298828125	1058.556274414062	-506.5695190429688	-842.9061889648438	828.550537109375	-395.1652526855469	-919.5487670898438	846.3724975585938	-363.8228759765625	-895.2388916015625	1005.701721191406	-391.0113525390625	-897.3407592773438	648.8352661132812	-399.4644775390625	-866.62451171875	712.6744995117188	-367.3213500976562	-933.7021484375	733.1532592773438	-354.9037475585938	-766.0255126953125	1563.73486328125	-598.4996948242188	-554.8223876953125	1583.187377929688	-608.431884765625	-603.7875366210938	1577.850708007812	-529.721923828125	-688.4928588867188	1562.52392578125	-722.4326171875	-760.3399047851562	921.8714599609375	-812.5509643554688	-790.7645874023438	931.2318115234375	-439.2554626464844	-664.84912109375	924.6090698242188	-493.1903381347656	-629.99951171875	910.8278198242188	-741.7685546875	-837.1718139648438	469.06494140625	-799.24462890625	-794.0113525390625	604.9118041992188	-809.2322998046875	-1137.493774414062	122.7237014770508	-826.4735717773438	-991.4657592773438	294.6506958007812	-825.37841796875	-975.1084594726562	36.82835388183594	-742.8826904296875	-1043.8544921875	48.13100051879883	-705.2876586914062	-1037.463134765625	50.97172164916992	-822.0029296875	-1184.193359375	150.6389770507812	-774.3080444335938	-613.80126953125	484.230224609375	-478.4142150878906	-685.2974243164062	735.4797973632812	-431.2357482910156	-623.7059936523438	41.17729187011719	-538.9545288085938	-581.7286987304688	362.2509155273438	-496.0328979492188	-420.8360290527344	47.31624984741211	-548.3298950195312	-467.9238891601562	43.21546936035156	-599.9425048828125	-525.7311401367188	34.32177734375	-497.2530212402344	-661.64501953125	36.19145202636719	-598.4297485351562	
207	2.06	-864.8018798828125	983.7327270507812	-553.4762573242188	-828.8748779296875	979.974609375	-724.8778686523438	-824.7818603515625	1049.96923828125	-652.3042602539062	-571.1102905273438	1208.500122070312	-584.6029052734375	-824.0740966796875	1161.255249023438	-665.0714721679688	-763.20947265625	1403.796630859375	-666.9755859375	-622.9798583984375	1313.028076171875	-606.9324951171875	-843.406982421875	1268.244506835938	-617.0147705078125	-743.9539794921875	1366.09130859375	-770.14111328125	-641.4611206054688	1368.045532226562	-788.6513061523438	-648.7676391601562	1250.8984375	-865.9849853515625	-638.8261108398438	1048.322998046875	-880.434814453125	-715.0797729492188	1033.090454101562	-839.681396484375	-544.2233276367188	846.8377075195312	-804.3753662109375	-563.3153686523438	824.8834228515625	-871.7656860351562	-612.4843139648438	948.0897827148438	-880.5153198242188	-497.7825317382812	671.1871948242188	-789.5446166992188	-537.55078125	740.07763671875	-860.6403198242188	-493.9520263671875	759.5230712890625	-813.8460083007812	-760.2849731445312	1379.267700195312	-496.4742431640625	-798.8099365234375	1325.117431640625	-440.093994140625	-881.841064453125	1072.601196289062	-412.663818359375	-857.05078125	1059.555053710938	-503.0264892578125	-831.83544921875	829.876953125	-391.3445434570312	-908.7681884765625	846.7206420898438	-360.0761413574219	-886.4778442382812	1006.388916015625	-387.4781494140625	-883.7736206054688	649.4685668945312	-395.5608215332031	-853.98046875	713.7138671875	-363.434326171875	-921.378662109375	733.328369140625	-351.1074829101562	-760.4194946289062	1565.33740234375	-594.8827514648438	-549.2537231445312	1585.538452148438	-604.3032836914062	-598.39892578125	1580.011474609375	-525.7197265625	-682.6162719726562	1564.451293945312	-718.6306762695312	-751.5374145507812	923.3313598632812	-808.4951171875	-782.2515258789062	932.9732666015625	-435.0914306640625	-656.3087768554688	926.5482177734375	-489.2254638671875	-621.2027587890625	912.9185791015625	-737.6881713867188	-822.6597900390625	468.8638305664062	-797.3125	-781.401611328125	605.3104858398438	-806.4467163085938	-1130.829711914062	129.2020263671875	-826.4843139648438	-980.6824340820312	297.4712524414062	-824.5752563476562	-974.2392578125	36.50254440307617	-742.8951416015625	-1041.863891601562	49.70188903808594	-705.2556762695312	-1034.590942382812	52.31111907958984	-822.2833862304688	-1175.759643554688	158.9114227294922	-773.968505859375	-609.3284912109375	483.7695617675781	-476.8704223632812	-677.6898193359375	735.5929565429688	-428.0407104492188	-623.5518188476562	41.37491226196289	-539.0806884765625	-578.385009765625	361.5967102050781	-494.9065551757812	-420.3070678710938	46.32949447631836	-548.8282470703125	-467.6899719238281	42.64734268188477	-600.5433349609375	-525.5146484375	34.51138687133789	-497.5203247070312	-661.5703125	36.31389236450195	-598.478271484375	
